<?xml version="1.0" standalone="no"?><!DOCTYPE svg PUBLIC "-//W3C//DTD SVG 1.1//EN" "http://www.w3.org/Graphics/SVG/1.1/DTD/svg11.dtd"><svg viewBox="0 0 3940 610" class="bm bn" version="1.1" xmlns="http://www.w3.org/2000/svg" xmlns:xlink="http://www.w3.org/1999/xlink" style="block-size:25px;cursor:pointer;font-family:medium-content-sans-serif-font, -apple-system, BlinkMacSystemFont, &quot;Segoe UI&quot;, Roboto, Oxygen, Ubuntu, Cantarell, &quot;Open Sans&quot;, &quot;Helvetica Neue&quot;, sans-serif;height:25px;inline-size:161.469px;perspective-origin:80.7292px 12.5px;transform-origin:80.7344px 12.5px;width:161.469px;-webkit-tap-highlight-color:rgba(0, 0, 0, 0);"><path d="M594.79 308.2c0 163.76-131.85 296.52-294.5 296.52S5.8 472 5.8 308.2 137.65 11.69 300.29 11.69s294.5 132.75 294.5 296.51M917.86 308.2c0 154.16-65.93 279.12-147.25 279.12s-147.25-125-147.25-279.12S689.29 29.08 770.61 29.08s147.25 125 147.25 279.12M1050 308.2c0 138.12-23.19 250.08-51.79 250.08s-51.79-112-51.79-250.08 23.19-250.08 51.8-250.08S1050 170.09 1050 308.2M1862.77 37.4l.82-.18v-6.35h-167.48l-155.51 365.5-155.51-365.5h-180.48v6.35l.81.18c30.57 6.9 46.09 17.19 46.09 54.3v434.45c0 37.11-15.58 47.4-46.15 54.3l-.81.18V587H1327v-6.35l-.81-.18c-30.57-6.9-46.09-17.19-46.09-54.3V116.9L1479.87 587h11.33l205.59-483.21V536.9c-2.62 29.31-18 38.36-45.68 44.61l-.82.19v6.3h213.3v-6.3l-.82-.19c-27.71-6.25-43.46-15.3-46.08-44.61l-.14-445.2h.14c0-37.11 15.52-47.4 46.08-54.3m97.43 287.8c3.49-78.06 31.52-134.4 78.56-135.37 14.51.24 26.68 5 36.14 14.16 20.1 19.51 29.55 60.28 28.09 121.21zm-2.11 22h250v-1.05c-.71-59.69-18-106.12-51.34-138-28.82-27.55-71.49-42.71-116.31-42.71h-1c-23.26 0-51.79 5.64-72.09 15.86-23.11 10.7-43.49 26.7-60.45 47.7-27.3 33.83-43.84 79.55-47.86 130.93-.13 1.54-.24 3.08-.35 4.62s-.18 2.92-.25 4.39a332.64 332.64 0 0 0-.36 21.69C1860.79 507 1923.65 600 2035.3 600c98 0 155.07-71.64 169.3-167.8l-7.19-2.53c-25 51.68-69.9 83-121 79.18-69.76-5.22-123.2-75.95-118.35-161.63m532.69 157.68c-8.2 19.45-25.31 30.15-48.24 30.15s-43.89-15.74-58.78-44.34c-16-30.7-24.42-74.1-24.42-125.51 0-107 33.28-176.21 84.79-176.21 21.57 0 38.55 10.7 46.65 29.37zm165.84 76.28c-30.57-7.23-46.09-18-46.09-57V5.28L2424.77 60v6.7l1.14-.09c25.62-2.07 43 1.47 53.09 10.79 7.9 7.3 11.75 18.5 11.75 34.26v71.14c-18.31-11.69-40.09-17.38-66.52-17.38-53.6 0-102.59 22.57-137.92 63.56-36.83 42.72-56.3 101.1-56.3 168.81C2230 518.72 2289.53 600 2378.13 600c51.83 0 93.53-28.4 112.62-76.3V588h166.65v-6.66zm159.29-505.33c0-37.76-28.47-66.24-66.24-66.24-37.59 0-67 29.1-67 66.24s29.44 66.24 67 66.24c37.77 0 66.24-28.48 66.24-66.24m43.84 505.33c-30.57-7.23-46.09-18-46.09-57h-.13V166.65l-166.66 47.85v6.5l1 .09c36.06 3.21 45.93 15.63 45.93 57.77V588h166.8v-6.66zm427.05 0c-30.57-7.23-46.09-18-46.09-57V166.65L3082 212.92v6.52l.94.1c29.48 3.1 38 16.23 38 58.56v226c-9.83 19.45-28.27 31-50.61 31.78-36.23 0-56.18-24.47-56.18-68.9V166.66l-166.66 47.85V221l1 .09c36.06 3.2 45.94 15.62 45.94 57.77v191.27a214.48 214.48 0 0 0 3.47 39.82l3 13.05c14.11 50.56 51.08 77 109 77 49.06 0 92.06-30.37 111-77.89v66h166.66v-6.66zM3934.2 588v-6.67l-.81-.19c-33.17-7.65-46.09-22.07-46.09-51.43v-243.2c0-75.83-42.59-121.09-113.93-121.09-52 0-95.85 30.05-112.73 76.86-13.41-49.6-52-76.86-109.06-76.86-50.12 0-89.4 26.45-106.25 71.13v-69.87l-166.66 45.89v6.54l1 .09c35.63 3.16 45.93 15.94 45.93 57V588h155.5v-6.66l-.82-.2c-26.46-6.22-35-17.56-35-46.66V255.72c7-16.35 21.11-35.72 49-35.72 34.64 0 52.2 24 52.2 71.28V588h155.54v-6.66l-.82-.2c-26.46-6.22-35-17.56-35-46.66v-248a160.45 160.45 0 0 0-2.2-27.68c7.42-17.77 22.34-38.8 51.37-38.8 35.13 0 52.2 23.31 52.2 71.28V588z" style="block-size:auto;cursor:pointer;d:path(&quot;M 594.79 308.2 C 594.79 471.96 462.94 604.72 300.29 604.72 S 5.8 472 5.8 308.2 S 137.65 11.69 300.29 11.69 S 594.79 144.44 594.79 308.2 M 917.86 308.2 C 917.86 462.36 851.93 587.32 770.61 587.32 S 623.36 462.32 623.36 308.2 S 689.29 29.08 770.61 29.08 S 917.86 154.08 917.86 308.2 M 1050 308.2 C 1050 446.32 1026.81 558.28 998.21 558.28 S 946.42 446.28 946.42 308.2 S 969.61 58.12 998.22 58.12 S 1050 170.09 1050 308.2 M 1862.77 37.4 L 1863.59 37.22 V 30.87 H 1696.11 L 1540.6 396.37 L 1385.09 30.87 H 1204.61 V 37.22 L 1205.42 37.4 C 1235.99 44.3 1251.51 54.59 1251.51 91.7 V 526.15 C 1251.51 563.26 1235.93 573.55 1205.36 580.45 L 1204.55 580.63 V 587 H 1327 V 580.65 L 1326.19 580.47 C 1295.62 573.57 1280.1 563.28 1280.1 526.17 V 116.9 L 1479.87 587 H 1491.2 L 1696.79 103.79 V 536.9 C 1694.17 566.21 1678.79 575.26 1651.11 581.51 L 1650.29 581.7 V 588 H 1863.59 V 581.7 L 1862.77 581.51 C 1835.06 575.26 1819.31 566.21 1816.69 536.9 L 1816.55 91.7 H 1816.69 C 1816.69 54.59 1832.21 44.3 1862.77 37.4 M 1960.2 325.2 C 1963.69 247.14 1991.72 190.8 2038.76 189.83 C 2053.27 190.07 2065.44 194.83 2074.9 203.99 C 2095 223.5 2104.45 264.27 2102.99 325.2 Z M 1958.09 347.2 H 2208.09 V 346.15 C 2207.38 286.46 2190.09 240.03 2156.75 208.15 C 2127.93 180.6 2085.26 165.44 2040.44 165.44 H 2039.44 C 2016.18 165.44 1987.65 171.08 1967.35 181.3 C 1944.24 192 1923.86 208 1906.9 229 C 1879.6 262.83 1863.06 308.55 1859.04 359.93 C 1858.91 361.47 1858.8 363.01 1858.69 364.55 S 1858.51 367.47 1858.44 368.94 A 332.64 332.64 0 0 0 1858.08 390.63 C 1860.79 507 1923.65 600 2035.3 600 C 2133.3 600 2190.37 528.36 2204.6 432.2 L 2197.41 429.67 C 2172.41 481.35 2127.51 512.67 2076.41 508.85 C 2006.65 503.63 1953.21 432.9 1958.06 347.22 M 2490.75 504.9 C 2482.55 524.35 2465.44 535.05 2442.51 535.05 S 2398.62 519.31 2383.73 490.71 C 2367.73 460.01 2359.31 416.61 2359.31 365.2 C 2359.31 258.2 2392.59 188.99 2444.1 188.99 C 2465.67 188.99 2482.65 199.69 2490.75 218.36 Z M 2656.59 581.18 C 2626.02 573.95 2610.5 563.18 2610.5 524.18 V 5.28 L 2424.77 60 V 66.7 L 2425.91 66.61 C 2451.53 64.54 2468.91 68.08 2479 77.4 C 2486.9 84.7 2490.75 95.9 2490.75 111.66 V 182.8 C 2472.44 171.11 2450.66 165.42 2424.23 165.42 C 2370.63 165.42 2321.64 187.99 2286.31 228.98 C 2249.48 271.7 2230.01 330.08 2230.01 397.79 C 2230 518.72 2289.53 600 2378.13 600 C 2429.96 600 2471.66 571.6 2490.75 523.7 V 588 H 2657.4 V 581.34 Z M 2815.88 75.85 C 2815.88 38.09 2787.41 9.61001 2749.64 9.61001 C 2712.05 9.61001 2682.64 38.71 2682.64 75.85 S 2712.08 142.09 2749.64 142.09 C 2787.41 142.09 2815.88 113.61 2815.88 75.85 M 2859.72 581.18 C 2829.15 573.95 2813.63 563.18 2813.63 524.18 H 2813.5 V 166.65 L 2646.84 214.5 V 221 L 2647.84 221.09 C 2683.9 224.3 2693.77 236.72 2693.77 278.86 V 588 H 2860.57 V 581.34 Z M 3286.77 581.18 C 3256.2 573.95 3240.68 563.18 3240.68 524.18 V 166.65 L 3082 212.92 V 219.44 L 3082.94 219.54 C 3112.42 222.64 3120.94 235.77 3120.94 278.1 V 504.1 C 3111.11 523.55 3092.67 535.1 3070.33 535.88 C 3034.1 535.88 3014.15 511.41 3014.15 466.98 V 166.66 L 2847.49 214.51 V 221 L 2848.49 221.09 C 2884.55 224.29 2894.43 236.71 2894.43 278.86 V 470.13 A 214.48 214.48 0 0 0 2897.9 509.95 L 2900.9 523 C 2915.01 573.56 2951.98 600 3009.9 600 C 3058.96 600 3101.96 569.63 3120.9 522.11 V 588.11 H 3287.56 V 581.45 Z M 3934.2 588 V 581.33 L 3933.39 581.14 C 3900.22 573.49 3887.3 559.07 3887.3 529.71 V 286.51 C 3887.3 210.68 3844.71 165.42 3773.37 165.42 C 3721.37 165.42 3677.52 195.47 3660.64 242.28 C 3647.23 192.68 3608.64 165.42 3551.58 165.42 C 3501.46 165.42 3462.18 191.87 3445.33 236.55 V 166.68 L 3278.67 212.57 V 219.11 L 3279.67 219.2 C 3315.3 222.36 3325.6 235.14 3325.6 276.2 V 588 H 3481.1 V 581.34 L 3480.28 581.14 C 3453.82 574.92 3445.28 563.58 3445.28 534.48 V 255.72 C 3452.28 239.37 3466.39 220 3494.28 220 C 3528.92 220 3546.48 244 3546.48 291.28 V 588 H 3702.02 V 581.34 L 3701.2 581.14 C 3674.74 574.92 3666.2 563.58 3666.2 534.48 V 286.48 A 160.45 160.45 0 0 0 3664 258.8 C 3671.42 241.03 3686.34 220 3715.37 220 C 3750.5 220 3767.57 243.31 3767.57 291.28 V 588 Z&quot;);font-family:medium-content-sans-serif-font, -apple-system, BlinkMacSystemFont, &quot;Segoe UI&quot;, Roboto, Oxygen, Ubuntu, Cantarell, &quot;Open Sans&quot;, &quot;Helvetica Neue&quot;, sans-serif;height:auto;inline-size:auto;overflow-clip-margin:0px;overflow-x:visible;overflow-y:visible;perspective-origin:0px 0px;transform-origin:0px 0px;vertical-align:baseline;width:auto;-webkit-tap-highlight-color:rgba(0, 0, 0, 0);"/></svg>